<mxfile host="app.diagrams.net" modified="2023-09-23T06:45:17.442Z" agent="Mozilla/5.0 (Macintosh; Intel Mac OS X 10.15; rv:109.0) Gecko/20100101 Firefox/117.0" version="21.6.6" etag="edukzOlqw-b4iTYZ0kUB" type="github">
  <diagram name="Halaman-1" id="H7o3byEryEpKC2Y2fOsI">
    <mxGraphModel>
      <root>
        <mxCell id="0" />
        <mxCell id="1" parent="0" />
      </root>
    </mxGraphModel>
  </diagram>
</mxfile>
